<?xml version="1.0" standalone="no"?>
<!DOCTYPE svg PUBLIC "-//W3C//DTD SVG 20010904//EN"
 "http://www.w3.org/TR/2001/REC-SVG-20010904/DTD/svg10.dtd">
<svg version="1.0" xmlns="http://www.w3.org/2000/svg"
 width="1280.000000pt" height="905.000000pt" viewBox="0 0 1280.000000 905.000000"
 preserveAspectRatio="xMidYMid meet">
<metadata>
Created by potrace 1.15, written by Peter Selinger 2001-2017
</metadata>
<g transform="translate(0.000000,905.000000) scale(0.100000,-0.100000)"
fill="#FF0000" stroke="none">
<path d="M7955 8820 c-93 -5 -341 -20 -550 -34 -209 -14 -477 -30 -595 -36
-566 -27 -963 -92 -2085 -341 -732 -163 -1082 -230 -1367 -263 -70 -7 -131
-17 -137 -20 -16 -11 -60 23 -77 59 -15 32 -14 38 30 174 57 173 59 210 12
257 -28 28 -42 34 -76 34 -52 0 -95 -25 -114 -65 -8 -16 -33 -90 -57 -163 -36
-113 -46 -133 -66 -138 -29 -8 -41 -48 -21 -72 13 -15 4 -52 -94 -352 -60
-184 -168 -515 -239 -735 -72 -220 -161 -494 -199 -610 -37 -115 -123 -379
-190 -585 -529 -1632 -477 -1477 -508 -1492 -32 -16 -40 -43 -18 -67 14 -15
10 -33 -44 -196 -32 -99 -144 -443 -249 -765 -234 -721 -511 -1574 -762 -2347
-245 -753 -231 -709 -224 -743 21 -94 130 -125 202 -58 25 23 33 46 342 998
315 972 561 1729 762 2348 105 323 196 604 201 624 7 26 20 43 44 57 19 11 34
26 34 33 0 25 82 62 140 63 36 1 117 20 240 58 967 299 2276 466 3873 494 213
3 387 4 387 1 0 -3 -66 -63 -146 -134 -192 -169 -273 -269 -274 -340 0 -35 38
-73 109 -108 212 -107 526 -147 994 -126 293 13 335 16 1077 90 929 92 1193
110 1620 110 276 -1 440 -9 677 -36 194 -22 185 -28 202 134 17 162 64 438
105 618 148 658 435 1271 833 1781 116 149 226 273 396 445 207 210 285 321
322 463 19 74 19 89 0 152 -26 86 -116 159 -255 206 -350 117 -1134 78 -2140
-108 -102 -18 -320 -59 -485 -89 -165 -31 -372 -65 -460 -76 -149 -18 -544
-45 -552 -37 -2 2 10 33 26 68 68 150 115 336 130 518 6 61 15 130 21 152 26
97 -37 163 -182 188 -92 16 -407 21 -613 11z m-4786 -709 l27 -19 -8 -94 c-97
-1153 -475 -2322 -1096 -3393 -41 -71 -78 -141 -82 -155 -6 -25 -114 -99 -126
-87 -3 3 66 227 154 499 176 541 471 1450 674 2073 178 550 239 736 316 977
74 228 83 240 141 199z"/>
</g>
</svg>
